<?xml version="1.0" standalone="no"?>
<!DOCTYPE svg PUBLIC "-//W3C//DTD SVG 20010904//EN"
 "http://www.w3.org/TR/2001/REC-SVG-20010904/DTD/svg10.dtd">
<svg version="1.0" xmlns="http://www.w3.org/2000/svg"
 width="141.000000pt" height="141.000000pt" viewBox="0 0 141.000000 141.000000"
 preserveAspectRatio="xMidYMid meet">
<metadata>
Created by potrace 1.14, written by Peter Selinger 2001-2017
</metadata>
<g transform="translate(0.000000,141.000000) scale(0.100000,-0.100000)"
fill="#000000" stroke="none">
<path d="M575 1286 c-355 -81 -580 -405 -530 -763 8 -59 48 -176 62 -180 18
-6 45 27 34 41 -17 21 -25 78 -25 191 -1 131 21 214 84 318 134 222 390 338
641 291 143 -28 258 -91 353 -195 29 -33 64 -81 77 -107 13 -26 26 -49 29 -52
3 -3 12 -25 20 -49 11 -33 21 -45 38 -48 22 -3 23 0 17 29 -23 113 -85 232
-162 314 -97 101 -169 149 -291 190 -95 32 -255 41 -347 20z"/>
<path d="M1058 704 c-3 -3 -45 -12 -83 -18 -55 -9 -187 -56 -300 -107 -27 -12
-52 -23 -55 -24 -3 0 -77 -36 -165 -79 -219 -107 -373 -181 -417 -199 -36 -15
-38 -18 -38 -61 0 -44 0 -44 28 -36 372 113 501 143 747 176 158 20 449 21
608 0 l27 -3 0 172 c0 130 -3 172 -12 173 -25 4 -338 9 -340 6z"/>
<path d="M937 324 c-1 -1 -38 -5 -82 -8 -82 -7 -142 -13 -184 -21 -13 -2 -45
-7 -70 -11 -85 -12 -252 -48 -324 -69 -26 -8 -47 -11 -47 -7 0 3 -5 1 -12 -6
-7 -7 -19 -12 -27 -12 -35 0 -191 -54 -191 -66 0 -11 46 -12 238 -9 240 5 363
10 462 19 30 3 89 8 130 11 41 3 95 7 120 9 83 9 254 19 355 20 l100 2 3 61
c3 71 8 68 -113 79 -74 6 -353 13 -358 8z"/>
</g>
</svg>
